<?xml version="1.0" standalone="no"?>
<!DOCTYPE svg PUBLIC "-//W3C//DTD SVG 20010904//EN"
 "http://www.w3.org/TR/2001/REC-SVG-20010904/DTD/svg10.dtd">
<svg version="1.0" xmlns="http://www.w3.org/2000/svg"
 width="112.000000pt" height="53.000000pt" viewBox="0 0 112.000000 53.000000"
 preserveAspectRatio="xMidYMid meet">

<g transform="translate(0.000000,53.000000) scale(0.100000,-0.100000)"
fill="#000000" stroke="none">
<path d="M214 435 c-8 -19 3 -35 26 -35 19 0 30 17 23 38 -6 17 -42 15 -49 -3z"/>
<path d="M157 343 c-11 -10 -8 -41 4 -49 16 -9 43 21 36 40 -7 16 -28 21 -40
9z"/>
<path d="M394 336 c-9 -24 4 -48 23 -44 12 2 18 12 18 28 0 29 -32 41 -41 16z"/>
<path d="M650 265 c0 -51 3 -65 15 -65 9 0 15 9 15 24 0 21 6 25 33 28 25 2
33 8 35 26 5 34 -15 52 -59 52 l-39 0 0 -65z m75 25 c0 -8 -10 -16 -22 -18
-18 -3 -23 2 -23 18 0 16 5 21 23 18 12 -2 22 -10 22 -18z"/>
<path d="M770 320 c0 -5 7 -10 15 -10 8 0 15 5 15 10 0 6 -7 10 -15 10 -8 0
-15 -4 -15 -10z"/>
<path d="M776 293 c-3 -3 -6 -26 -6 -50 0 -32 4 -43 15 -43 11 0 15 12 15 44
0 43 -10 63 -24 49z"/>
<path d="M820 291 c0 -5 10 -11 22 -13 21 -3 21 -3 -5 -34 -15 -18 -27 -35
-27 -38 0 -3 41 -6 90 -6 53 0 90 4 90 10 0 6 -12 10 -26 10 l-25 0 20 29 c29
41 26 51 -14 51 -38 0 -48 -17 -14 -22 l21 -3 -22 -27 c-15 -20 -31 -28 -51
-28 l-30 0 20 29 c29 41 26 51 -14 51 -19 0 -35 -4 -35 -9z"/>
<path d="M1009 283 c-13 -15 -11 -16 14 -9 15 3 27 2 27 -3 0 -5 -12 -12 -26
-15 -19 -5 -25 -12 -22 -29 2 -18 10 -22 41 -24 36 -1 37 0 37 36 0 57 -40 82
-71 44z m41 -58 c-12 -15 -30 -12 -30 6 0 5 10 9 21 9 18 0 19 -2 9 -15z"/>
<path d="M123 174 c-3 -8 1 -22 9 -30 13 -14 17 -14 31 1 9 8 14 22 11 30 -8
20 -43 19 -51 -1z"/>
<path d="M220 115 c0 -22 4 -26 23 -23 14 2 22 10 22 23 0 13 -8 21 -22 23
-19 3 -23 -1 -23 -23z"/>
</g>
</svg>
